<svg fill="none" height="48" viewBox="0 0 48 48" width="48" xmlns="http://www.w3.org/2000/svg"><path d="m48 24c0-13.2562-10.7438-24-24-24s-24 10.7438-24 24c0 11.9813 8.775 21.9094 20.25 23.7094v-16.7719h-6.0938v-6.9375h6.0938v-5.2875c0-6.0141 3.5813-9.3375 9.0656-9.3375 2.625 0 5.3719.46875 5.3719.46875v5.90625h-3.0281c-2.9813 0-3.9094 1.8516-3.9094 3.75v4.5h6.6562l-1.064 6.9375h-5.5922v16.7719c11.475-1.8 20.25-11.7281 20.25-23.7094z" fill="#1877f2"/><path d="m33.3422 30.9375 1.064-6.9375h-6.6562v-4.5c0-1.8984.9281-3.75 3.9094-3.75h3.0281v-5.90625s-2.7469-.46875-5.3719-.46875c-5.4843 0-9.0656 3.3234-9.0656 9.3375v5.2875h-6.0938v6.9375h6.0938v16.7719c1.2234.1922 2.475.2906 3.75.2906s2.5266-.0984 3.75-.2906v-16.7719z" fill="#fff"/></svg>