<svg height="48" viewBox="0 0 48 48" width="48" xmlns="http://www.w3.org/2000/svg"><path d="m24 .398438c-13.035156 0-23.601562 10.566406-23.601562 23.601562s10.566406 23.601562 23.601562 23.601562 23.601562-10.566406 23.601562-23.601562-10.566406-23.601562-23.601562-23.601562zm0 0" fill="#29b6f6"/><path d="m35.742188 13.378906-4.421876 22.570313s-.191406 1.03125-1.46875 1.03125c-.679687 0-1.03125-.324219-1.03125-.324219l-9.574218-7.945312-4.683594-2.359376-6.011719-1.601562s-1.070312-.308594-1.070312-1.191406c0-.738282 1.101562-1.089844 1.101562-1.089844l25.152344-9.992188s.769531-.277343 1.328125-.277343c.34375 0 .738281.148437.738281.589843 0 .296876-.058593.589844-.058593.589844zm0 0" fill="#fff"/><path d="m22.820312 31.675781-4.042968 3.980469s-.175782.136719-.410156.140625c-.082032.003906-.167969-.007813-.257813-.046875l1.136719-7.039062zm0 0" fill="#b0bec5"/><path d="m30.957031 17.152344c-.199219-.261719-.566406-.308594-.824219-.109375l-15.574218 9.316406s2.488281 6.953125 2.867187 8.15625c.378907 1.207031.683594 1.234375.683594 1.234375l1.136719-7.039062 11.601562-10.734376c.257813-.195312.308594-.566406.109375-.824218zm0 0" fill="#cfd8dc"/></svg>