<svg height="30" viewBox="0 0 30 30" width="30" xmlns="http://www.w3.org/2000/svg">
  <g fill="none" fill-rule="evenodd" stroke="#fff" transform="translate(1 1)">
    <path
      d="m10.2555408-.5h7.4889184c3.7076736 0 5.0451384.40371921 6.398723 1.12762422 1.3921268.74451754 2.484676 1.83706677 3.2291936 3.22919354.723905 1.35358467 1.1276242 2.69104947 1.1276242 6.39872304v7.4889184c0 3.7076736-.4037192 5.0451384-1.1276242 6.398723-.7445176 1.3921268-1.8370668 2.484676-3.2291936 3.2291936-1.3535846.723905-2.6910494 1.1276242-6.398723 1.1276242h-7.4889184c-3.70767357 0-5.04513837-.4037192-6.39872304-1.1276242-1.39212677-.7445176-2.484676-1.8370668-3.22919354-3.2291936-.72390501-1.3535846-1.12762422-2.6910494-1.12762422-6.398723v-7.4889184c0-3.70767357.40371921-5.04513837 1.12762422-6.39872304.74451754-1.39212677 1.83706677-2.484676 3.22919354-3.22919354 1.35358467-.72390501 2.69104947-1.12762422 6.39872304-1.12762422z"
      fill="#000" />
    <path
      d="m9.52217333 6.92378667 5.95635997-6.92378667h-1.4114666l-5.1719067 6.01182667-4.13078667-6.01182667h-4.76437333l6.24656 9.09094667-6.24656 7.26065333h1.41154667l5.46166666-6.3486933 4.36241337 6.3486933h4.7643733l-6.47817333-9.42781333zm-1.93330666 2.24725333-.63290667-.90525333-5.03581333-7.20319467h2.16805333l4.06396 5.813208.63290667.90525333 5.28266663 7.55627997h-2.1680533l-4.31081333-6.16594663z"
      fill="#fff" fill-rule="nonzero" stroke-width=".3" transform="translate(6 6)" />
  </g>
</svg>
