<svg height="16" viewBox="0 0 24 16" width="24" xmlns="http://www.w3.org/2000/svg">
    <g fill="none">
        <path
            d="m23.5055164 2.50359587c-.2766712-.97894784-1.0872757-1.7505993-2.1152255-2.01420912-1.8781049-.48938675-9.3905244-.48938675-9.3905244-.48938675s-7.51223654 0-9.39034142.47073181c-1.0081745.26343549-1.83855432 1.05409055-2.11522549 2.03286406-.49419959 1.78808351-.49419959 5.49640413-.49419959 5.49640413s0 3.7269756.49419959 5.4964041c.27685431.9787735 1.08727568 1.7505993 2.11540858 2.0142091 1.8976971.4893868 9.39034143.4893868 9.39034143.4893868s7.5122364 0 9.3903413-.4707318c1.0281329-.2634355 1.8385543-1.0352613 2.1154086-2.0140348.4943005-1.7882578.4943005-5.49640415.4943005-5.49640415s.0196744-3.72714987-.4944836-5.51523338z"
            fill="#f00" />
        <path d="m9.60786977 11.4258815 6.24698303-3.42588148-6.24698303-3.42588155z" fill="#fff" />
    </g>
</svg>